<svg xmlns="http://www.w3.org/2000/svg" xmlns:xlink="http://www.w3.org/1999/xlink" version="1.1" x="0px" y="0px" viewBox="0 0 62 16" enable-background="new 0 0 62 16" xml:space="preserve"><style>.style0{fill-rule:	evenodd;clip-rule:	evenodd;fill:	#231E1B;}.style1{fill:	#1C1815;}</style><path d="M8 0C3.5 0-0.1 3.6-0.1 8.1c0 3.6 2.3 6.6 5.5 7.7 c0.4 0.1 0.6-0.2 0.6-0.4c0-0.2 0-0.7 0-1.4c-2.2 0.5-2.7-1.1-2.7-1.1c-0.4-0.9-0.9-1.2-0.9-1.2c-0.7-0.5 0.1-0.5 0.1-0.5 c0.8 0.1 1.2 0.8 1.2 0.8c0.7 1.2 1.9 0.9 2.4 0.7c0.1-0.5 0.3-0.9 0.5-1.1c-1.8-0.2-3.7-0.9-3.7-4c0-0.9 0.3-1.6 0.8-2.2 c-0.1-0.2-0.4-1 0.1-2.1c0 0 0.7-0.2 2.2 0.8C6.6 4 7.3 3.9 8 3.9c0.7 0 1.4 0.1 2 0.3c1.5-1 2.2-0.8 2.2-0.8 c0.4 1.1 0.2 1.9 0.1 2.1c0.5 0.6 0.8 1.3 0.8 2.2c0 3.1-1.9 3.8-3.7 4c0.3 0.2 0.5 0.7 0.5 1.5c0 1.1 0 2 0 2.2 c0 0.2 0.1 0.5 0.6 0.4c3.2-1.1 5.5-4.1 5.5-7.7C16 3.6 12.4 0 8 0z" class="style0"/><g><path d="M27.3 7.1h-3.5c-0.1 0-0.2 0.1-0.2 0.2V9c0 0.1 0.1 0.2 0.2 0.2h1.4v2.1c0 0-0.3 0.1-1.2 0.1 c-1 0-2.4-0.4-2.4-3.5c0-3.1 1.5-3.5 2.8-3.5c1.2 0 1.7 0.2 2 0.3c0.1 0 0.2-0.1 0.2-0.2L27 2.9c0 0 0-0.1-0.1-0.1 c-0.1-0.1-0.9-0.5-3-0.5c-2.4 0-4.8 1-4.8 5.8c0 4.8 2.8 5.5 5.1 5.5c1.9 0 3.1-0.8 3.1-0.8c0 0 0.1-0.1 0.1-0.1V7.2 C27.4 7.1 27.4 7.1 27.3 7.1z" class="style1"/><path d="M45.5 2.8c0-0.1-0.1-0.2-0.2-0.2h-2c-0.1 0-0.2 0.1-0.2 0.2c0 0 0 3.8 0 3.8h-3.1V2.8 c0-0.1-0.1-0.2-0.2-0.2h-2c-0.1 0-0.2 0.1-0.2 0.2v10.4c0 0.1 0.1 0.2 0.2 0.2h2c0.1 0 0.2-0.1 0.2-0.2V8.7h3.1l0 4.5 c0 0.1 0.1 0.2 0.2 0.2h2c0.1 0 0.2-0.1 0.2-0.2V2.8z" class="style1"/><g><g><ellipse cx="29.8" cy="4.1" rx="1.3" ry="1.3" class="style1"/><path d="M30.9 11c0-0.3 0-4.8 0-4.8c0-0.1-0.1-0.2-0.2-0.2h-2c-0.1 0-0.2 0.1-0.2 0.2c0 0 0 5.8 0 6.9 c0 0.2 0.1 0.3 0.3 0.3c0 0 0.8 0 1.8 0c0.2 0 0.2-0.1 0.2-0.3C30.9 12.7 30.9 11.3 30.9 11z" class="style1"/></g></g><path d="M53 6h-2c-0.1 0-0.2 0.1-0.2 0.2v5.1c0 0-0.5 0.4-1.2 0.4c-0.7 0-0.9-0.3-0.9-1c0-0.7 0-4.5 0-4.5 c0-0.1-0.1-0.2-0.2-0.2h-2c-0.1 0-0.2 0.1-0.2 0.2c0 0 0 2.7 0 4.8c0 2.1 1.2 2.6 2.7 2.6c1.3 0 2.4-0.7 2.4-0.7s0.1 0.4 0.1 0.4 c0 0 0.1 0.1 0.1 0.1l1.3 0c0.1 0 0.2-0.1 0.2-0.2l0-7C53.2 6.1 53.1 6 53 6z" class="style1"/><path d="M58.4 5.8c-1.1 0-1.9 0.5-1.9 0.5V2.8c0-0.1-0.1-0.2-0.2-0.2h-2c-0.1 0-0.2 0.1-0.2 0.2v10.4 c0 0.1 0.1 0.2 0.2 0.2h1.4c0.1 0 0.1 0 0.1-0.1c0-0.1 0.1-0.5 0.1-0.5s0.8 0.8 2.4 0.8c1.8 0 2.9-0.9 2.9-4.1 C61.2 6.2 59.6 5.8 58.4 5.8z M57.7 11.7c-0.7 0-1.1-0.3-1.1-0.3V8c0 0 0.5-0.3 1-0.3c0.7-0.1 1.4 0.2 1.4 1.8 C58.9 11.3 58.6 11.7 57.7 11.7z" class="style1"/><path d="M36.6 6h-1.5l0-2c0-0.1 0-0.1-0.1-0.1h-2c-0.1 0-0.1 0-0.1 0.1v2c0 0-1 0.2-1.1 0.3c-0.1 0-0.1 0.1-0.1 0.2 v1.3c0 0.1 0.1 0.2 0.2 0.2h1c0 0 0 1.3 0 3.1c0 2.3 1.6 2.5 2.7 2.5c0.5 0 1.1-0.2 1.2-0.2c0.1 0 0.1-0.1 0.1-0.1l0-1.4 c0-0.1-0.1-0.2-0.2-0.2c-0.1 0-0.3 0-0.5 0c-0.7 0-1-0.3-1-0.8c0-0.4 0-2.9 0-2.9h1.5c0.1 0 0.2-0.1 0.2-0.2V6.2 C36.8 6.1 36.7 6 36.6 6z" class="style1"/></g></svg>