<?xml version="1.0" encoding="utf-8"?>
<!-- Generator: Adobe Illustrator 18.1.1, SVG Export Plug-In . SVG Version: 6.00 Build 0)  -->
<!DOCTYPE svg PUBLIC "-//W3C//DTD SVG 1.1//EN" "http://www.w3.org/Graphics/SVG/1.1/DTD/svg11.dtd">
<svg version="1.1" id="Layer_1" xmlns="http://www.w3.org/2000/svg" xmlns:xlink="http://www.w3.org/1999/xlink" x="0px" y="0px"
	 viewBox="16.7 -318.3 300 300" enable-background="new 16.7 -318.3 300 300" xml:space="preserve">
<g>
	<g>
		<g>
			<path fill="#1E1E1E" d="M77.7-103.3l39.6,31.4c0.6,0.6,0.6,1.3,0,1.9l-9.4,11.9c-0.6,0.6-1.3,0.6-1.9,0l-6.3-5
				c-0.6-0.6-1.3-0.6-1.9,0L72.1-31c-12.6,16.3-13.8,15.1-25.8,6.3c-11.9-9.4-12.6-10.1,0-26.4l25.8-32.1c0.6-0.6,0.6-1.3,0-1.9
				l-6.3-5c-0.6-0.6-0.6-1.3,0-1.9l10.1-11.3C76.5-103.9,77.1-103.9,77.7-103.3L77.7-103.3z M56.3-48l11.3,8.8
				c1.3,1.3,3.8,0.6,5-0.6c1.3-1.3,0.6-3.8-0.6-5l-11.3-8.8c-1.3-0.6-3.8-0.6-5,0.6C55.1-51.1,55.1-49.3,56.3-48L56.3-48z
				 M69.5-64.3l11.3,8.8c1.3,1.3,3.8,1.3,4.4-0.6c1.3-1.3,0.6-3.8-0.6-5L73.3-70c-1.3-1.3-3.8-0.6-5,0.6
				C67.7-67.5,68.3-65.6,69.5-64.3L69.5-64.3z"/>
		</g>
	</g>
	<polygon fill="#1F1F1F" points="238,-257.3 259.4,-284.4 267.6,-299.5 266.3,-279.3 245.6,-254.8 250,-253.6 273.2,-281.8 
		275.1,-318.3 239.3,-307.6 208.5,-266.1 	"/>
	<polygon fill="#1F1F1F" points="82.7,-252.3 87.1,-253.6 65.8,-279.3 64.5,-299.5 72.7,-284.4 95.3,-256.1 124.2,-264.9 
		92.2,-307.6 56.3,-318.3 58.9,-281.8 	"/>
	<g>
		<g>
			<path fill="#1E1E1E" d="M255.6-103.3L216-71.9c-0.6,0.6-0.6,1.3,0,1.9l9.4,11.9c0.6,0.6,1.3,0.6,1.9,0l6.3-5
				c0.6-0.6,1.3-0.6,1.9,0L261.3-31c12.6,16.3,13.8,15.1,25.8,6.3c11.9-9.4,12.6-10.1,0-26.4l-25.8-32.1c-0.6-0.6-0.6-1.3,0-1.9
				l6.3-5c0.6-0.6,0.6-1.3,0-1.9l-9.4-11.9C256.9-103.9,256.2-103.9,255.6-103.3L255.6-103.3z M276.4-48L265-39.2
				c-1.3,1.3-3.8,0.6-5-0.6c-1.3-1.3-0.6-3.8,0.6-5l11.3-8.8c1.3-1.3,3.8-0.6,5,0.6C278.2-51.1,278.2-49.3,276.4-48L276.4-48z
				 M263.8-64.3l-11.3,8.8c-1.3,1.3-3.8,0.6-5-0.6c-1.3-1.3-0.6-3.8,0.6-5l11.3-8.8c1.3-1.3,3.8-0.6,5,0.6
				C265.7-67.5,265-65.6,263.8-64.3L263.8-64.3z"/>
		</g>
	</g>
	<path fill="#034457" d="M267.6-244.1l-97.4-30.8c-2.5-0.6-5-0.6-7.5,0l-97.4,30.8c-5,1.9-8.8,6.3-8.8,11.9
		C56.3-97.7,124.2-65.6,160.7-48c1.9,0.6,3.8,1.3,5.7,1.3c1.9,0,3.8-0.6,5.7-1.3c36.5-17,104.4-49.7,104.4-184.2
		C276.4-237.8,273.2-242.9,267.6-244.1L267.6-244.1z M166.4-73.1c-34.6-17-81.7-44.6-84.2-149.6l84.9-26.4l84.9,26.4
		C248.7-117.8,201.6-90.1,166.4-73.1L166.4-73.1z"/>
	<path fill="#E94C1D" d="M95.9-212.7c0,30.8,8.2,55.3,18.9,74.2l86.1-85.5l-34.6-10.7L95.9-212.7z"/>
	<path fill="#E94C1D" d="M166.4-87.6c23.9-10.7,69.1-47.1,70.4-122.6l-100,100.6C148.8-98.3,160.1-91.4,166.4-87.6L166.4-87.6z"/>
</g>
</svg>
